# xmcd
#
# Track frame offsets:
#	225
#	12156
#	27251
#	37307
#	48621
#	61161
#	75235
#	90326
#	102450
#	117976
#	126463
#	138366
#	149509
#	159904
#	171248
#	182535
#
# Disc length: 2559 seconds
#
# Revision: 0
# Processed by: cddbd v1.5.2PL0 Copyright (c) Steve Scherf et al.
# Submitted via: EasyCDDAExtractor 10.2.0.1
#
DISCID=d609fc10
DTITLE=The Good Shepherd Quartet - Sacred Tones Of Yesteryear
DYEAR=2001
DGENRE=Gospel
TTITLE0=It Made A Lot Of Difference
TTITLE1=I'm A Debtor I Know
TTITLE2=Won't That Be A Happy Time
TTITLE3=I'm Waiting The Call
TTITLE4=Oh Listen
TTITLE5=He's Got His Eyes On You
TTITLE6=This Old World Is Full Of Trouble
TTITLE7=Living Alone With Jesus
TTITLE8=Not Far' Not Far
TTITLE9=Jesus Keeps Me Happy
TTITLE10=I Read It In The Book Of Revelation
TTITLE11=Little David Will Play
TTITLE12=I Want To Be In That Number
TTITLE13=A Cloud Received Him From Their Sight
TTITLE14=Waiting For The Day Of Jubilee
TTITLE15=Another Friend Is Gone
EXTD=
EXTT0=
EXTT1=
EXTT2=
EXTT3=
EXTT4=
EXTT5=
EXTT6=
EXTT7=
EXTT8=
EXTT9=
EXTT10=
EXTT11=
EXTT12=
EXTT13=
EXTT14=
EXTT15=
PLAYORDER=
